<svg width="836" height="196" viewBox="0 0 836 196" fill="none" xmlns="http://www.w3.org/2000/svg">
<path d="M833.5 0V27C833.5 43.5685 820.069 57 803.5 57H386C369.431 57 356 70.4315 356 87V137.5C356 154.069 342.569 167.5 326 167.5H101" stroke="#EBF2FC" stroke-width="4"/>
<path d="M51.5 86.8094C53.9752 85.3803 57.0248 85.3803 59.5 86.8094L99.5644 109.941C102.04 111.37 103.564 114.011 103.564 116.869V163.131C103.564 165.989 102.04 168.63 99.5644 170.059L59.5 193.191C57.0248 194.62 53.9752 194.62 51.5 193.191L11.4356 170.059C8.96038 168.63 7.43559 165.989 7.43559 163.131V116.869C7.43559 114.011 8.96038 111.37 11.4356 109.941L51.5 86.8094Z" fill="#EBF2FC"/>
</svg>
