<svg width="139" height="153" viewBox="0 0 139 153" fill="none" xmlns="http://www.w3.org/2000/svg">
<path d="M51.5 43.8094C53.9752 42.3803 57.0248 42.3803 59.5 43.8094L99.5644 66.9406C102.04 68.3697 103.564 71.0107 103.564 73.8688V120.131C103.564 122.989 102.04 125.63 99.5644 127.059L59.5 150.191C57.0248 151.62 53.9752 151.62 51.5 150.191L11.4356 127.059C8.96038 125.63 7.43559 122.989 7.43559 120.131V73.8688C7.43559 71.0107 8.96038 68.3697 11.4356 66.9406L51.5 43.8094Z" fill="#EBF2FC"/>
<path d="M109 1.6547C110.238 0.940169 111.762 0.940169 113 1.6547L133.249 13.3453C134.486 14.0598 135.249 15.3803 135.249 16.8094V40.1906C135.249 41.6197 134.486 42.9402 133.249 43.6547L113 55.3453C111.762 56.0598 110.238 56.0598 109 55.3453L88.7513 43.6547C87.5137 42.9402 86.7513 41.6197 86.7513 40.1906V16.8094C86.7513 15.3803 87.5137 14.0598 88.7513 13.3453L109 1.6547Z" fill="#EBF2FC"/>
</svg>
