<svg width="78" height="75" viewBox="0 0 78 75" fill="none" xmlns="http://www.w3.org/2000/svg">
<path d="M31.4042 26.98C31.4033 27.5408 31.8817 27.9961 32.4708 27.9952C33.0599 27.9961 33.5374 27.5416 33.5374 26.98C33.5374 26.4201 33.0591 25.9648 32.4708 25.9648C31.8807 25.9648 31.4033 26.4192 31.4042 26.98Z" fill="white"/>
<path d="M32.5504 30.0271C31.9627 30.0697 31.5227 30.5576 31.5675 31.1169C31.7057 32.8408 32.0084 36.0537 32.482 38.2062C32.6026 38.7552 33.1682 39.1072 33.7449 38.992C34.3238 38.8764 34.6907 38.3369 34.5705 37.7899C34.1048 35.6741 33.803 32.3106 33.6954 30.9626C33.6506 30.4033 33.1378 29.9847 32.5504 30.0271Z" fill="white"/>
<path d="M33.5376 20.8871C33.5368 23.6932 35.9219 25.9652 38.8713 25.9644C41.8205 25.9652 44.2066 23.6946 44.2054 20.8871C44.2054 18.0812 41.8202 15.8103 38.8718 15.8103C35.924 15.8103 33.5376 18.0806 33.5376 20.8871ZM42.0719 20.8873C42.0716 20.8876 42.0716 20.8876 42.0716 20.8876C42.0722 22.5714 40.6425 23.9339 38.8713 23.9333C37.1023 23.9339 35.6708 22.5725 35.6717 20.8873C35.6717 19.2036 37.1026 17.8416 38.8718 17.8414C40.6401 17.8414 42.0716 19.2033 42.0719 20.8873Z" fill="white"/>
<path d="M39.9391 72.8268L39.9389 63.8491C39.9391 63.2883 39.4614 62.8335 38.8719 62.8335C38.2829 62.8338 37.8054 63.2883 37.8051 63.8491V72.8266C37.8051 73.3876 38.2829 73.8424 38.8722 73.8424C39.4614 73.8421 39.9389 73.3876 39.9391 72.8268Z" fill="white"/>
<path d="M47.4833 65.6456L47.483 56.6679C47.483 56.1074 47.0052 55.6526 46.4161 55.6523C45.8269 55.6526 45.3494 56.1071 45.3489 56.6681V65.6456C45.3492 66.2064 45.8269 66.6612 46.4161 66.6614C47.0055 66.6609 47.483 66.2064 47.4833 65.6456Z" fill="white"/>
<path d="M31.3282 66.6614C31.9174 66.6611 32.3948 66.2066 32.3951 65.6458V56.6683C32.3951 56.1073 31.9174 55.6525 31.3282 55.6528C30.7387 55.6528 30.2614 56.1073 30.2614 56.6683V65.6458C30.261 66.2066 30.7387 66.6614 31.3282 66.6614Z" fill="white"/>
<path d="M39.6663 1.48969C39.4642 1.27424 39.1747 1.15137 38.8712 1.15137C38.5676 1.15137 38.2773 1.27396 38.076 1.48969C34.4557 5.34303 27.1353 15.8084 27.1353 26.9813C27.1353 29.3804 27.2841 31.7921 27.5745 34.1612C21.9438 37.7596 18.5999 43.7074 18.6001 50.1839C18.6001 52.0034 18.8665 53.8061 19.392 55.5429C19.6883 56.5211 21.148 56.5163 21.4425 55.5432C22.7934 51.0872 25.9676 47.3562 30.2341 45.1563C30.6048 46.0624 31.0001 46.8891 31.4149 47.6213C31.88 48.4455 32.7415 48.999 33.7294 49.1353C33.6879 49.4975 33.6664 49.8647 33.6664 50.235C33.6664 53.9318 38.0041 58.8125 38.1889 59.0186C38.5939 59.4703 39.3163 59.4953 39.7548 59.0778C39.7745 59.059 39.7937 59.0391 39.8119 59.0189C39.9964 58.813 44.3357 53.9321 44.3359 50.235C44.3359 49.8495 44.3127 49.4672 44.2678 49.0907C45.1626 48.8977 45.9092 48.3633 46.3274 47.623C46.7426 46.89 47.1378 46.0627 47.5089 45.1563C51.7751 47.3559 54.9495 51.0872 56.3005 55.5432C56.5994 56.5295 58.0588 56.5059 58.3506 55.5426C58.8764 53.8061 59.1428 52.0034 59.1428 50.1839C59.1428 43.7076 55.7986 37.7596 50.1682 34.1615C50.4585 31.7919 50.6073 29.3802 50.6073 26.9811C50.6073 21.481 48.9201 15.708 45.5929 9.82169C43.9775 6.87024 41.2982 3.22644 39.6663 1.48969ZM20.7934 51.5956C20.7537 51.1274 20.7336 50.6561 20.734 50.1839C20.7336 44.7296 23.3862 39.6947 27.8986 36.4369C28.3007 38.8876 28.8518 41.193 29.5208 43.2167C25.7392 45.0887 22.6986 48.0272 20.7934 51.5956ZM42.2021 50.235C42.2021 52.2099 40.3147 55.0478 38.9999 56.7245C37.6858 55.0494 35.8001 52.2144 35.8001 50.235C35.8001 49.8742 35.8256 49.518 35.8742 49.1687H42.1276C42.1765 49.5177 42.2018 49.8739 42.2021 50.235ZM44.4485 46.6599C44.2843 46.9503 43.9266 47.1377 43.5369 47.1377C41.3819 47.1377 35.2369 47.1377 34.2061 47.1377C33.8161 47.1379 33.4584 46.95 33.2935 46.6585C32.8999 45.9639 32.5231 45.1706 32.1695 44.292C34.2962 43.4846 36.5455 43.0756 38.8709 43.075C41.1968 43.0756 43.4462 43.4846 45.5729 44.292C45.2192 45.1706 44.8426 45.9645 44.4485 46.6599ZM57.009 50.1839C57.009 50.6563 56.989 51.1271 56.9489 51.5956C55.0441 48.0269 52.0035 45.0884 48.2218 43.2164C48.8905 41.193 49.4417 38.8876 49.8438 36.4369C54.3568 39.6947 57.0087 44.7296 57.009 50.1839ZM48.4736 26.9811C48.4732 31.9361 47.7962 37.6143 46.2646 42.3689C43.916 41.4906 41.4344 41.0446 38.8709 41.044C36.3077 41.0448 33.8264 41.4906 31.4781 42.3692C29.9464 37.6145 29.2691 31.9361 29.2691 26.9813C29.2691 21.9818 30.7722 16.7112 33.738 11.3062H44.0043C46.9705 16.7109 48.4732 21.9818 48.4736 26.9811ZM42.8235 9.27494L34.919 9.27493C36.476 6.74428 37.9864 4.8162 38.8712 3.75748C39.7559 4.8162 41.2667 6.744 42.8235 9.27494Z" fill="white"/>
</svg>
